<?xml version="1.0" encoding="utf-8"?>
<!-- Generator: Adobe Illustrator 27.8.1, SVG Export Plug-In . SVG Version: 6.00 Build 0)  -->
<svg version="1.1" id="Слой_2" xmlns="http://www.w3.org/2000/svg" xmlns:xlink="http://www.w3.org/1999/xlink" x="0px" y="0px"
	 viewBox="0 0 700 700" style="enable-background:new 0 0 700 700;" xml:space="preserve">
<style type="text/css">
	.st0{fill:#8CC63F;}
	.st1{fill:#39B54A;stroke:#006837;stroke-width:8;stroke-miterlimit:10;}
	.st2{fill:#FFFFFF;}
	.st3{fill:none;stroke:#8CC63F;stroke-width:8;stroke-miterlimit:10;}
	.st4{fill:none;stroke:#006837;stroke-width:8;stroke-miterlimit:10;}
	.st5{fill:#FFFFFF;stroke:#FFFFFF;stroke-miterlimit:10;}
	.st6{fill:none;stroke:#39B54A;stroke-miterlimit:10;}
	.st7{fill:#006837;stroke:#006837;stroke-miterlimit:10;}
	.st8{fill:#39B54A;stroke:#006837;stroke-miterlimit:10;}
	.st9{fill:none;stroke:#006837;stroke-width:3;stroke-miterlimit:10;}
</style>
<path class="st0" d="M512.47,517.07c17.07-3.24,31.59,3.87,43.1,8.62c9.56,3.94,25.18,10.39,25.86,20.11
	c0.74,10.5-16.32,19.48-28.73,25.86c-33.76,17.35-64.59,20-66.09,20.11c-91.95,7.02-140.79,5.75-140.79,5.75
	c-113.37-2.95-144.76-0.21-204.01-14.37c-70.22-16.77-71.82-31.53-71.83-34.48c-0.03-10.63,20.21-20.29,25.86-22.99
	c9.67-4.62,24.34-12.72,40.23-8.62c10.43,2.69,12.49,8.21,28.73,20.11c11.73,8.59,20.97,13.27,34.48,20.11
	c31.69,16.05,63.31,20.9,77.58,22.99c12.08,1.76,67.13,9.03,123.55-8.62c19.32-6.04,37.35-14.37,37.35-14.37
	c18.06-8.34,35.61-18.59,43.1-22.99C503.99,520.73,504.52,518.58,512.47,517.07z"/>
<path class="st1" d="M531.48,510.99c17.07-3.24,31.59,3.87,43.1,8.62c9.56,3.94,25.18,10.39,25.86,20.11
	c0.74,10.5-16.32,19.48-28.73,25.86c-33.76,17.35-64.59,20-66.09,20.11c-91.95,7.02-140.79,5.75-140.79,5.75
	c-113.37-2.95-144.76-0.21-204.01-14.37C90.6,560.3,89,545.54,88.99,542.59c-0.03-10.63,20.21-20.29,25.86-22.99
	c9.67-4.62,24.34-12.72,40.23-8.62c10.43,2.69,12.49,8.21,28.73,20.11c11.73,8.59,20.97,13.27,34.48,20.11
	c31.69,16.05,63.31,20.9,77.58,22.99c12.08,1.76,67.13,9.03,123.55-8.62c19.32-6.04,37.35-14.37,37.35-14.37
	c18.06-8.34,35.61-18.59,43.1-22.99C523,514.65,523.53,512.5,531.48,510.99z"/>
<path class="st2" d="M572.37,524.78c0.63-1.23,25.27,4.34,25.18,15.53c-0.05,5.71-6.54,11.75-12.14,13.83
	c-0.48,0.18-0.62,0.13-0.53-0.09c0.46-1.11,6.63-6.55,6.8-11.13C592.04,533.14,571.79,525.93,572.37,524.78z"/>
<path class="st0" d="M183.52,94.15c-6.5,3.59-10.21,8.04-17.24,17.24c-21.63,28.29-29.15,57.81-31.61,68.96
	c-6.28,28.56-4.46,51.07-2.87,68.96c2.59,29.22,5.73,64.48,28.73,100.57c8.15,12.79,27.04,38.6,60.34,57.47
	c46.78,26.51,125.26,41.17,160.91,2.87c5.26-5.65,29.05-31.21,25.86-60.34c-1.11-10.15-5.35-19.32,0-25.86
	c5.39-6.59,14.54-3.21,31.61-8.62c0,0,10.72-3.4,22.99-11.49c20.17-13.31,29.11-33.71,34.48-45.97c4.65-10.62,20.59-48.5,8.62-94.82
	c-7.9-30.58-15.36-42.61-22.13-48.28c-2.07-1.74-5.05-4.23-9.48-6.31c-25.27-11.89-66.08,4.25-86.2,31.61
	c-15.11,20.55-12.64,27.88-22.99,31.61c-22.4,8.07-41.98-34.29-106.31-66.09C210.66,82.13,190.75,90.15,183.52,94.15z"/>
<path class="st1" d="M198.18,88.61c-6.5,3.59-10.21,8.04-17.24,17.24c-21.63,28.29-29.15,57.81-31.61,68.96
	c-6.28,28.56-4.46,51.07-2.87,68.96c2.59,29.22,5.73,64.48,28.73,100.57c8.15,12.79,27.04,38.6,60.34,57.47
	c46.78,26.51,125.26,41.17,160.91,2.87c5.26-5.65,29.05-31.21,25.86-60.34c-1.11-10.15-5.35-19.32,0-25.86
	c5.39-6.59,14.54-3.21,31.61-8.62c0,0,10.72-3.4,22.99-11.49c20.17-13.31,29.11-33.71,34.48-45.97c4.65-10.62,20.59-48.5,8.62-94.82
	c-7.9-30.58-15.36-42.61-22.13-48.28c-2.07-1.74-5.05-4.23-9.48-6.31c-25.27-11.89-66.08,4.25-86.2,31.61
	c-15.11,20.55-12.64,27.88-22.99,31.61c-22.4,8.07-41.98-34.29-106.31-66.09C225.32,76.59,205.4,84.61,198.18,88.61z"/>
<path class="st3" d="M588.36,427.59c9.42-7.75,35.57-1.08,40.69,14.26c2.75,8.24-1.58,17.18-2.91,19.97
	c-2.94,6.17-7.15,10.06-8.72,11.41c-2.48,2.14-4.63,3.37-8.72,5.7c-1.17,0.67-4.83,2.73-11.63,5.7c-2.14,0.94-6.61,2.85-14.53,5.7
	c-6.11,2.2-12.83,4.57-17.44,5.7c-15.47,3.8-35.58,0.32-36.5-5.17c-1.16-6.86,28.65-10.91,42.32-31.91
	c8.12-12.49,11.63-19.97,11.63-19.97C586.24,431.12,586,429.54,588.36,427.59z"/>
<path class="st4" d="M583.2,421.92c9.16-7.52,35.03-1.48,40.23,14.37c2.72,8.3-1.56,17.31-2.87,20.11
	c-2.91,6.22-7.07,10.13-8.62,11.49c-2.45,2.16-4.58,3.39-8.62,5.75c-1.15,0.67-4.77,2.75-11.49,5.75
	c-2.11,0.94-6.53,2.87-14.37,5.75c-9.01,3.31-13.52,4.96-17.24,5.75c-6.62,1.4-17.87,3.77-20.11,0
	c-2.74-4.6,11.04-13.56,25.86-37.35c5.77-9.25,8.65-13.88,11.49-20.11C581.06,425.52,580.82,423.87,583.2,421.92z"/>
<path class="st5" d="M479.76,105.85c9.61,13.35,15.97,25.46,20.11,34.48c5.17,11.27,9.51,20.9,11.49,34.48
	c0.35,2.4,1.79,12.87,0,28.73c-1.37,12.12-4.29,35.61-20.11,60.34c-2.39,3.73-23.09,36.09-43.1,40.23
	c-4.48,0.93-14.74,1.63-22.99,5.75c-1.79,0.89-4.54,2.47-8.62,2.87c-4.93,0.49-7.09-1.2-8.62,0c-2.85,2.23,1.11,10.8,2.87,17.24
	c3.41,12.43,0.36,23.12-2.87,34.48c-8.58,30.09-37.11,45.26-34.48,48.85c1.5,2.05,10.99-2.62,11.49-2.87
	c20.6-10.26,27.71-33.31,31.61-45.97c4.18-13.58,6.52-21.17,2.87-28.73c-2.46-5.11-7.29-9.44-5.75-14.37
	c0.57-1.82,1.95-3.52,5.75-5.75c9.45-5.53,19.25-5.73,20.11-5.75c15.2-0.35,29.41-11.57,40.23-20.11
	c19.06-15.05,25.94-35.16,31.61-51.72c10.37-30.3,7.95-56.57,5.75-66.09c-0.3-1.3-1.49-6.15-2.87-11.49
	c-2.66-10.28-3.99-15.42-5.75-20.11c-1.73-4.63-4.06-10.87-8.62-17.24C496.79,118.78,490.69,111.63,479.76,105.85z"/>
<path class="st6" d="M632.05,281.12"/>
<path class="st7" d="M422.29,249.52c-4.24-1.05-3.55-22.83,0-40.23c11.38-55.67,55.43-82.56,66.09-89.07
	c4.71-2.87,12.6-7.63,14.37-5.75c3.3,3.51-19.38,25.06-40.23,57.47C434.42,215.63,427.79,250.87,422.29,249.52z"/>
<path class="st7" d="M218.29,117.34c4.69-3.67,60.9,56.53,106.31,132.17c0,0,54.09,90.09,37.35,146.54
	c-1.02,3.44-2.74,8.21-5.75,8.62c-12.16,1.66-24.46-70.99-54.59-143.67C262.93,167.7,214.04,120.66,218.29,117.34z"/>
<path class="st5" d="M476.89,120.22c-1.24-1.51-28.82,12.03-48.85,40.23c0,0-26.72,37.61-20.11,83.33c0.4,2.79,1.37,8.57,2.87,8.62
	c4.09,0.14,0.37-42.3,20.11-80.45C448.9,137.18,478.18,121.79,476.89,120.22z"/>
<path class="st2" d="M272.88,151.82"/>
<path class="st5" d="M203.92,125.96c2.08-1.5,44.01,42.44,77.58,106.31c28.17,53.59,39.9,101.14,45.97,126.43
	c4.91,20.46,10.47,48.36,8.62,48.85c-3.01,0.8-17.17-73.23-57.47-158.03C242.25,172.95,201.98,127.36,203.92,125.96z"/>
<path class="st0" d="M513.31,504.49c-77.92,80.68-242.85,104.26-339.05,31.61c-58.72-44.35-91.98-124.66-83.33-132.17
	c1.07-0.93,2.35-0.37,14.37,0c11.87,0.37,16.46,0,25.86,0c26.71,0,127.85,2.91,201.13,2.87c71.65-0.03,183.43-2.87,204.01-2.87
	c3.85,0,7.27,0.1,14.37,0c14.8-0.2,16.19-0.85,17.24,0C574.91,409.61,549.12,467.41,513.31,504.49z"/>
<path class="st1" d="M528.61,502.37c-77.92,80.68-242.85,104.26-339.05,31.61c-58.72-44.35-91.98-124.66-83.33-132.17
	c1.07-0.93,2.35-0.37,14.37,0c11.87,0.37,16.46,0,25.86,0c26.71,0,127.85,2.91,201.13,2.87c71.65-0.03,183.43-2.87,204.01-2.87
	c3.85,0,7.27,0.1,14.37,0c14.8-0.2,16.19-0.85,17.24,0C590.21,407.49,564.42,465.29,528.61,502.37z"/>
<path class="st8" d="M643.54,324.22"/>
<path class="st5" d="M669.4,298.36"/>
<path class="st9" d="M712.5,473.64"/>
<path class="st9" d="M666.53,545.47"/>
</svg>
