<?xml version="1.0" encoding="utf-8"?>
<!-- Generator: Adobe Illustrator 27.8.1, SVG Export Plug-In . SVG Version: 6.00 Build 0)  -->
<svg version="1.1" id="Слой_1" xmlns="http://www.w3.org/2000/svg" xmlns:xlink="http://www.w3.org/1999/xlink" x="0px" y="0px"
	 viewBox="0 0 3516.78 3516.78" style="enable-background:new 0 0 3516.78 3516.78;" xml:space="preserve">
<style type="text/css">
	.st0{fill:#8CC63F;}
	.st1{fill:#39B54A;stroke:#006837;stroke-width:60;stroke-miterlimit:10;}
	.st2{fill:none;stroke:#006837;stroke-width:60;stroke-miterlimit:10;}
	.st3{fill:none;stroke:#006837;stroke-width:2;stroke-miterlimit:10;}
	.st4{fill:none;stroke:#006837;stroke-width:3;stroke-miterlimit:10;}
</style>
<path class="st0" d="M2740.87,509.72c-619.81-168.51-1249.58,15.1-1582.69,458.9c-401.43,534.81-347.74,1418.51,45.29,1626.12
	c263.77,139.34,667.09-32.88,888.51-224.39c210.96-182.47,292.7-413.49,330.37-524.06c82.04-240.81,43.32-348.47,87.12-634.15
	C2535.16,1044.6,2592.97,799.92,2740.87,509.72z"/>
<path class="st1" d="M2605.18,443.24c-627.73-136.07-1247.1,80.01-1556.71,540.52c-373.09,554.95-273.56,1434.66,129.73,1621.57
	c270.66,125.44,664.48-67.5,875.65-270.26c201.2-193.18,270.82-428.14,302.69-540.52c69.41-244.75,25.16-350.25,54.05-637.82
	C2427.54,988.09,2472.56,740.74,2605.18,443.24z"/>
<path class="st2" d="M2605.18,443.24c-200.83,81.32-619.61,284.8-929.7,735.11C1104.04,2008.2,1397.08,2956.92,1437.65,3081"/>
<path class="st3" d="M2745.72,2010.76"/>
<path class="st2" d="M1275.49,799.99c111.61,6.93,245.03,34.17,302.69,129.73c82.2,136.2-39.54,328.23,21.62,367.56
	c51.71,33.25,146.8-98.84,324.31-151.35c145.86-43.14,286-14.41,389.18,21.62"/>
<path class="st2" d="M951.18,1383.75c81.86,20.29,204,64.5,281.07,172.97c115.48,162.52,58.6,369.13,129.73,389.18
	c48.9,13.78,77.18-83.48,216.21-172.97c135.55-87.25,273.54-100.93,345.94-108.1c125.02-12.39,230.06,3.85,302.69,21.62"/>
<path class="st4" d="M2172.76,400"/>
</svg>
